<svg width="17" height="17" viewBox="0 0 17 17" fill="none" xmlns="http://www.w3.org/2000/svg">
<g clip-path="url(#clip0_107_6593)">
<path d="M16.6076 8.65904C16.6076 7.96256 16.551 7.45431 16.4287 6.92725H8.47559V10.0708H13.1439C13.0498 10.852 12.5416 12.0285 11.4121 12.8191L11.3963 12.9244L13.9109 14.8724L14.0851 14.8898C15.6851 13.4121 16.6076 11.2379 16.6076 8.65904Z" fill="#4285F4"/>
<path d="M8.47547 16.9417C10.7626 16.9417 12.6826 16.1887 14.085 14.8899L11.412 12.8192C10.6967 13.318 9.73665 13.6663 8.47547 13.6663C6.23543 13.6663 4.33422 12.1886 3.65649 10.1462L3.55715 10.1547L0.942398 12.1783L0.908203 12.2733C2.30117 15.0404 5.16242 16.9417 8.47547 16.9417Z" fill="#34A853"/>
<path d="M3.6567 10.1462C3.47788 9.61916 3.37439 9.0544 3.37439 8.47088C3.37439 7.8873 3.47788 7.32261 3.6473 6.79554L3.64256 6.68329L0.995036 4.6272L0.908413 4.6684C0.334307 5.81668 0.00488281 7.10615 0.00488281 8.47088C0.00488281 9.83562 0.334307 11.125 0.908413 12.2733L3.6567 10.1462Z" fill="#FBBC05"/>
<path d="M8.47547 3.27536C10.0661 3.27536 11.139 3.96243 11.7508 4.5366L14.1415 2.20241C12.6732 0.837672 10.7626 0 8.47547 0C5.16242 0 2.30117 1.90121 0.908203 4.66832L3.64708 6.79546C4.33422 4.75306 6.23543 3.27536 8.47547 3.27536Z" fill="#EB4335"/>
</g>
<defs>
<clipPath id="clip0_107_6593">
<rect width="16.62" height="17" fill="white"/>
</clipPath>
</defs>
</svg>
